<svg xmlns="http://www.w3.org/2000/svg" viewBox="0 0 312 64" fill="none">
  <defs>
    <linearGradient id="mark-bg" x1="6" y1="6" x2="58" y2="58" gradientUnits="userSpaceOnUse">
      <stop offset="0" stop-color="#3B82F6" />
      <stop offset="0.52" stop-color="#2563EB" />
      <stop offset="1" stop-color="#0F172A" />
    </linearGradient>
    <linearGradient id="mark-wave" x1="17" y1="14" x2="50" y2="51" gradientUnits="userSpaceOnUse">
      <stop offset="0" stop-color="#E0F2FE" />
      <stop offset="1" stop-color="#FFFFFF" />
    </linearGradient>
    <linearGradient id="mark-accent" x1="38" y1="20" x2="55" y2="38" gradientUnits="userSpaceOnUse">
      <stop offset="0" stop-color="#A5F3FC" />
      <stop offset="1" stop-color="#60A5FA" />
    </linearGradient>
  </defs>

  <rect x="4" y="4" width="56" height="56" rx="18" fill="url(#mark-bg)" />
  <rect x="5.5" y="5.5" width="53" height="53" rx="16.5" stroke="white" stroke-opacity=".16" />

  <path
    d="M45.3 15.2 50.2 17.8 45.3 20.3 42.8 25.2 40.3 20.3 35.3 17.8 40.3 15.2 42.8 10.3 45.3 15.2Z"
    fill="url(#mark-accent)"
  />
  <path
    d="M40.1 17.5C34.1 17.5 29.6 19.4 25.8 21.9C21.8 24.5 18.7 28.2 13.2 30.1V39.4C19.1 38.2 23.3 35.8 27.1 33.5C30.4 31.5 33.7 29.7 37.6 29.7C42.2 29.7 45.2 31.8 47.4 34.8V44.4C44.6 41.5 41 39.9 36.5 39.9C32.8 39.9 29.7 41.5 26.5 43.5C22.8 45.8 18.6 48.3 13.2 49.1V51.7H21C25.6 51.3 29.4 49.1 32.9 47C36 45.1 38.9 43.5 42.3 43.5C45.8 43.5 48.5 45 51.4 48.3V33.4C49.7 26.9 46 17.5 40.1 17.5Z"
    fill="url(#mark-wave)"
  />

  <path d="M82.144 43V20.6H91.808C96.736 20.6 99.552 22.776 99.552 26.68C99.552 29.4 97.92 31.448 95.424 32.12C98.592 32.664 100.544 34.808 100.544 37.816C100.544 42.04 97.504 43 92.832 43H82.144ZM86.688 29.656H91.232C93.216 29.656 94.688 28.984 94.688 27.192C94.688 25.304 93.12 24.664 91.04 24.664H86.688V29.656ZM86.688 39H91.648C93.888 39 95.616 38.424 95.616 36.248C95.616 34.104 93.952 33.432 91.648 33.432H86.688V39ZM112.616 43.352C107.272 43.352 103.88 40.248 103.88 35.096V20.6H108.456V34.776C108.456 37.56 109.896 39.224 112.648 39.224C115.4 39.224 116.84 37.56 116.84 34.776V20.6H121.384V35.096C121.384 40.248 118.024 43.352 112.616 43.352ZM125.47 43V20.6H133.598C138.91 20.6 142.174 23.512 142.174 28.152C142.174 32.792 138.91 35.704 133.598 35.704H130.014V43H125.47ZM130.014 31.608H133.118C136.03 31.608 137.502 30.552 137.502 28.152C137.502 25.752 136.03 24.696 133.118 24.696H130.014V31.608ZM153.303 43.352C146.519 43.352 142.359 38.584 142.359 31.8C142.359 25.016 146.519 20.248 153.303 20.248C160.119 20.248 164.279 25.016 164.279 31.8C164.279 38.584 160.119 43.352 153.303 43.352ZM153.303 39.064C157.239 39.064 159.575 36.056 159.575 31.8C159.575 27.544 157.239 24.536 153.303 24.536C149.399 24.536 147.063 27.544 147.063 31.8C147.063 36.056 149.399 39.064 153.303 39.064ZM167.486 43V20.6H172.03V38.808H182.27V43H167.486ZM194.962 43.352C188.178 43.352 184.018 38.584 184.018 31.8C184.018 25.016 188.178 20.248 194.962 20.248C201.778 20.248 205.938 25.016 205.938 31.8C205.938 38.584 201.778 43.352 194.962 43.352ZM194.962 39.064C198.898 39.064 201.234 36.056 201.234 31.8C201.234 27.544 198.898 24.536 194.962 24.536C191.058 24.536 188.722 27.544 188.722 31.8C188.722 36.056 191.058 39.064 194.962 39.064ZM219.353 43.352C213.017 43.352 208.953 38.84 208.953 31.8C208.953 24.952 213.177 20.248 219.417 20.248C224.377 20.248 228.153 23.064 229.017 27.96H224.249C223.641 25.624 221.785 24.408 219.417 24.408C215.705 24.408 213.625 27.512 213.625 31.8C213.625 36.312 215.833 39.192 219.609 39.192C222.521 39.192 224.441 37.592 224.697 34.776H219.993V30.936H229.145V43H225.369V39.928C224.121 42.104 221.913 43.352 219.353 43.352ZM233.078 43V20.6H237.622V43H233.078ZM241.9 43V20.6H256.972V24.76H246.444V29.4H255.98V33.4H246.444V38.84H257.164V43H241.9ZM266.692 43V34.84L258.82 20.6H263.94L268.964 30.264L273.924 20.6H278.916L271.236 34.744V43H266.692Z" fill="#162236"/>
</svg>
